<?xml version="1.0" encoding="UTF-8"?><svg xmlns="http://www.w3.org/2000/svg" xmlns:xlink="http://www.w3.org/1999/xlink" height="512.0" preserveAspectRatio="xMidYMid meet" version="1.0" viewBox="0.0 0.0 512.0 512.0" width="512.0" zoomAndPan="magnify">
 <g id="change1_1"><rect fill="#fff" height="512" rx="15%" width="512"/></g>
 <g id="change2_1"><rect fill="#d54c3f" height="267.05" ry="25.32" width="360.04" x="75.777" y="122.56"/></g>
 <g id="change3_1"><path d="m124.5 123.83h274.44v265.77h-274.44z" fill="#eaeaea"/></g>
 <g id="change4_1"><path d="m233.36 304.9l-108.86 84.7 0.008-192.51 108.84 107.8" fill="#e3e3e3"/></g>
 <g id="change5_1"><path d="m317.33 389.64l-225.16-225.09 307.69-7.305-0.925 232.36z" fill="inherit" opacity=".1"/></g>
 <g id="change6_1"><path d="m98.427 122.66l162.37 120.04 149.4-120z" fill="#efefef"/></g>
 <g id="change7_1"><path d="m426.7 162.9a22 22 0 1 0 -25.5 -36.5l-143.1 104.1-0.015 0.1-0.02-0.007-143.06-104.19a22.3 22 0 0 0 -25.5 36.5l-0.593-0.4 169.2 123.2m169.22-123.2l-170 124" fill="#de5145"/></g>
</svg>